<svg xmlns="http://www.w3.org/2000/svg" xmlns:xlink="http://www.w3.org/1999/xlink" width="500" zoomAndPan="magnify" viewBox="0 0 375 374.999991" height="500" preserveAspectRatio="xMidYMid meet" version="1.0"><defs><clipPath id="c2421fbc89"><path d="M 91 147 L 256 147 L 256 227 L 91 227 Z M 91 147 " clip-rule="nonzero"/></clipPath><clipPath id="7daf48329b"><path d="M 116.25 48.335938 L 255.195312 187.28125 L 116.25 326.226562 L -22.699219 187.28125 Z M 116.25 48.335938 " clip-rule="nonzero"/></clipPath><clipPath id="f40c96a15a"><path d="M 175.816406 -11.230469 L 375.21875 188.171875 L 176.875 386.515625 L -22.527344 187.113281 Z M 175.816406 -11.230469 " clip-rule="nonzero"/></clipPath><clipPath id="5dfbc90da5"><path d="M 24 138 L 93 138 L 93 237 L 24 237 Z M 24 138 " clip-rule="nonzero"/></clipPath><clipPath id="57e0ece5d9"><path d="M 116.25 48.335938 L 255.195312 187.28125 L 116.25 326.226562 L -22.699219 187.28125 Z M 116.25 48.335938 " clip-rule="nonzero"/></clipPath><clipPath id="9db8373a56"><path d="M 175.816406 -11.230469 L 375.21875 188.171875 L 176.875 386.515625 L -22.527344 187.113281 Z M 175.816406 -11.230469 " clip-rule="nonzero"/></clipPath><clipPath id="2b790861a1"><path d="M 9 184 L 87 184 L 87 191 L 9 191 Z M 9 184 " clip-rule="nonzero"/></clipPath><clipPath id="b98dd55bb1"><path d="M 116.25 48.335938 L 255.195312 187.28125 L 116.25 326.226562 L -22.699219 187.28125 Z M 116.25 48.335938 " clip-rule="nonzero"/></clipPath><clipPath id="a9b650aee7"><path d="M 175.816406 -11.230469 L 375.21875 188.171875 L 176.875 386.515625 L -22.527344 187.113281 Z M 175.816406 -11.230469 " clip-rule="nonzero"/></clipPath><clipPath id="6cd8c2a2f0"><path d="M 220.546875 123.148438 L 346 123.148438 L 346 243 L 220.546875 243 Z M 220.546875 123.148438 " clip-rule="nonzero"/></clipPath><clipPath id="34975e1bd9"><path d="M 220.546875 123.148438 L 346 123.148438 L 346 243.148438 L 220.546875 243.148438 Z M 220.546875 123.148438 " clip-rule="nonzero"/></clipPath></defs><g clip-path="url(#c2421fbc89)"><g clip-path="url(#7daf48329b)"><g clip-path="url(#f40c96a15a)"><path fill="#f4deb1" d="M 92.714844 203.792969 C 92.207031 203.285156 91.90625 202.589844 91.90625 201.855469 L 91.90625 172.824219 C 91.90625 171.808594 92.46875 170.882812 93.367188 170.402344 L 135.320312 148.234375 C 135.714844 148.023438 136.148438 147.914062 136.597656 147.914062 L 166.023438 147.914062 L 166.019531 226.765625 L 136.59375 226.765625 C 136.152344 226.765625 135.710938 226.65625 135.316406 226.449219 L 93.367188 204.277344 C 93.121094 204.144531 92.898438 203.984375 92.714844 203.792969 Z M 171.503906 147.914062 L 214.570312 147.914062 L 214.566406 226.765625 L 171.503906 226.761719 Z M 220.050781 147.914062 L 299.050781 147.914062 C 288.394531 158.21875 282.359375 172.3125 282.359375 187.34375 C 282.359375 201.992188 288.074219 215.792969 298.433594 226.152344 C 298.640625 226.359375 298.84375 226.566406 299.054688 226.765625 L 220.046875 226.765625 Z M 220.050781 147.914062 " fill-opacity="1" fill-rule="evenodd"/></g></g></g><g clip-path="url(#5dfbc90da5)"><g clip-path="url(#57e0ece5d9)"><g clip-path="url(#9db8373a56)"><path fill="#f4deb1" d="M 25.402344 235.214844 C 25.207031 235.023438 25.039062 234.792969 24.90625 234.542969 C 24.4375 233.628906 24.507812 232.542969 25.097656 231.703125 L 50.472656 195.5625 L 86.421875 195.5625 L 86.425781 201.855469 C 86.425781 204.03125 87.292969 206.121094 88.835938 207.664062 C 89.792969 208.621094 89.582031 208.472656 90.808594 209.125 L 92.273438 209.898438 L 74.445312 234.867188 C 73.929688 235.589844 73.097656 236.019531 72.214844 236.019531 L 27.34375 236.019531 C 26.597656 236.019531 25.910156 235.722656 25.402344 235.214844 Z M 50.46875 179.117188 L 25.097656 142.980469 C 24.507812 142.144531 24.4375 141.046875 24.910156 140.140625 C 25.382812 139.234375 26.316406 138.664062 27.339844 138.664062 L 72.210938 138.664062 C 73.097656 138.667969 73.929688 139.09375 74.445312 139.8125 L 92.277344 164.78125 L 90.808594 165.5625 C 88.113281 166.984375 86.425781 169.777344 86.421875 172.828125 L 86.425781 179.117188 Z M 50.46875 179.117188 " fill-opacity="1" fill-rule="evenodd"/></g></g></g><g clip-path="url(#2b790861a1)"><g clip-path="url(#b98dd55bb1)"><g clip-path="url(#a9b650aee7)"><path fill="#f4deb1" d="M 10.441406 189.28125 C 8.726562 187.566406 9.929688 184.597656 12.378906 184.597656 L 86.425781 184.597656 L 86.425781 190.078125 L 12.375 190.082031 C 11.621094 190.082031 10.9375 189.777344 10.441406 189.28125 Z M 10.441406 189.28125 " fill-opacity="1" fill-rule="evenodd"/></g></g></g><g clip-path="url(#6cd8c2a2f0)"><path fill="#0f4b56" d="M 179.84375 124.257812 C 180.199219 123.757812 180.742188 123.152344 181.472656 123.632812 C 186.191406 125.03125 189.910156 128.433594 193.691406 131.421875 C 196.007812 133.195312 198.179688 135.136719 200.226562 137.207031 C 204.964844 141.527344 209.371094 146.164062 214.113281 150.488281 C 214.800781 151.007812 215.449219 151.738281 216.347656 151.949219 C 220.0625 152.785156 223.925781 152.785156 227.726562 152.910156 C 244.453125 152.785156 261.179688 154.414062 277.617188 157.566406 C 281.207031 157.960938 284.632812 159.320312 288.246094 159.757812 C 294.800781 161.472656 301.378906 163.078125 307.832031 165.125 C 311.777344 166.546875 315.933594 167.296875 319.882812 168.695312 C 323.285156 169.78125 326.605469 171.140625 329.882812 172.539062 C 332.871094 174.105469 336.023438 175.398438 338.820312 177.363281 C 341.160156 178.96875 343.875 180.808594 344.542969 183.773438 C 345.148438 185.214844 343.855469 186.257812 342.957031 187.136719 C 341.265625 188.347656 339.21875 188.867188 337.359375 189.703125 C 337.378906 189.851562 337.421875 190.121094 337.464844 190.265625 C 339.613281 190.601562 341.660156 189.765625 343.8125 189.703125 C 345.148438 190.226562 345.523438 192.230469 344.4375 193.210938 C 343.082031 195.445312 340.679688 196.71875 338.425781 197.867188 C 335.730469 199.351562 332.722656 200.101562 329.820312 201.105469 C 312.382812 206.476562 295.046875 208.429688 278.492188 213.507812 C 277.28125 213.78125 276.675781 214.886719 275.839844 215.660156 C 274.714844 216.746094 273.941406 218.125 273.148438 219.460938 C 270.433594 223.242188 267.507812 226.851562 264.417969 230.339844 C 263.125 231.445312 261.640625 233.160156 259.742188 232.429688 C 258.320312 232.03125 257.695312 230.550781 257.546875 229.210938 C 257.421875 225.496094 257.253906 221.757812 257.589844 218.039062 C 253.289062 218.6875 249.007812 219.585938 244.644531 219.773438 C 241.53125 219.960938 238.484375 220.609375 235.371094 220.941406 C 231.445312 221.382812 227.539062 222.195312 223.550781 222.238281 C 215.867188 222.195312 208.160156 222.988281 200.496094 222.070312 C 199.890625 223.972656 198.597656 225.496094 197.429688 227.0625 C 195.863281 228.835938 194.964844 231.257812 192.875 232.511719 C 191.433594 233.222656 190.347656 231.78125 189.867188 230.632812 C 189.492188 230.195312 189.179688 228.941406 188.34375 229.234375 C 182.933594 233.011719 179.816406 238.5 173.203125 242.492188 C 172.328125 243.078125 171.074219 243.035156 170.300781 242.304688 C 168.589844 240.28125 168.695312 237.480469 169.300781 235.039062 C 170.226562 228.105469 169.835938 224.898438 173.414062 219.0625 C 171.222656 218.605469 168.988281 218.542969 166.773438 218.25 C 160.738281 217.015625 154.621094 216.371094 148.480469 215.890625 C 143.363281 215.429688 138.183594 214.742188 133.046875 215.472656 C 131.503906 215.597656 130.25 216.515625 128.914062 217.144531 C 126.429688 218.292969 124.089844 219.667969 121.8125 221.171875 C 119.976562 222.40625 117.910156 223.21875 116.027344 224.367188 C 112.625 226.351562 109.097656 228.085938 105.546875 229.734375 C 102.101562 230.925781 98.90625 232.761719 95.523438 234.140625 C 94.101562 234.703125 92.328125 234.726562 91.03125 233.871094 C 89.300781 232.242188 88.796875 229.839844 88.027344 227.6875 C 87.128906 224.828125 85.769531 222.113281 85.3125 219.125 C 84.976562 215.867188 84.976562 212.589844 85.394531 209.332031 C 85.519531 208.519531 85.269531 207.726562 84.957031 206.992188 C 85.519531 206.367188 85.875 205.28125 86.980469 205.53125 C 89.445312 205.40625 91.953125 205.050781 94.039062 203.652344 C 92.054688 202.734375 89.863281 202.503906 87.753906 202.046875 C 84.976562 201.4375 82.15625 201.167969 79.339844 200.875 C 75.289062 200.480469 71.238281 200.980469 67.226562 201.503906 C 65.203125 201.835938 63.386719 202.878906 61.378906 203.359375 C 57.832031 204.238281 54.46875 205.761719 50.875 206.597656 C 47.203125 207.453125 43.796875 209.164062 40.183594 210.292969 C 37.324219 211.148438 34.464844 212.234375 31.476562 212.507812 C 27.40625 212.988281 23.332031 213.46875 19.261719 213.949219 C 17.382812 213.988281 15.523438 213.886719 13.664062 213.761719 C 14.226562 212.359375 14.894531 210.984375 14.875 209.4375 C 17.101562 201.40625 19.386719 194.6875 21.765625 186.925781 C 21.976562 185.421875 21.371094 184.003906 21.222656 182.539062 C 16.925781 172.5 17.671875 164.832031 17.570312 153.535156 C 17.839844 152.136719 19.804688 152.074219 20.929688 152.179688 C 27.300781 152.910156 33.605469 154.664062 39.371094 157.503906 C 43.023438 159.109375 46.699219 160.71875 50.042969 162.910156 C 54.574219 165.375 58.476562 169.113281 63.53125 170.554688 C 67.664062 171.640625 71.90625 172.539062 76.207031 172.621094 C 80.675781 172.601562 85.1875 172.664062 89.59375 171.847656 C 87.210938 170.992188 84.582031 170.742188 82.367188 169.449219 C 81.261719 168.820312 81.761719 167.152344 82.535156 166.441406 C 84.101562 164.5 86.816406 164.519531 89.070312 164.351562 C 91.074219 164.226562 92.996094 165 94.917969 165.480469 C 98.53125 166.503906 102.058594 168.382812 105.921875 167.902344 C 109.222656 167.378906 112.582031 167.378906 115.902344 166.835938 C 119.285156 166.292969 122.691406 165.980469 126.050781 165.25 C 128.371094 165.25 130.6875 164.980469 132.945312 164.457031 C 136.535156 163.851562 140.191406 163.578125 143.71875 162.703125 C 148.480469 161.699219 153.34375 161.46875 158.128906 160.550781 C 161.03125 159.925781 164.039062 159.632812 166.898438 158.777344 C 164.351562 158.003906 161.675781 157.671875 159.109375 156.980469 C 157.292969 156.3125 155.414062 155.875 153.617188 155.164062 C 153.574219 154.160156 154.015625 153.222656 154.515625 152.386719 C 155.644531 151.050781 157.3125 150.320312 158.523438 149.085938 C 165.152344 141.753906 179.402344 126.441406 179.84375 124.257812 Z M 179.84375 124.257812 " fill-opacity="1" fill-rule="nonzero"/></g><g clip-path="url(#34975e1bd9)"><path stroke-linecap="butt" transform="matrix(4.227415, 0, 0, 4.227415, 8.790807, 13.237316)" fill="none" stroke-linejoin="miter" d="M 40.462774 26.262028 C 40.54686 26.143753 40.6753 26.000528 40.848093 26.114184 C 41.964319 26.444986 42.843994 27.249814 43.738453 27.956696 C 44.286402 28.376204 44.800161 28.835446 45.284352 29.325181 C 46.405198 30.347156 47.447501 31.443977 48.569271 32.466876 C 48.7319 32.589772 48.885289 32.762565 49.097815 32.812463 C 49.976566 33.010205 50.89043 33.010205 51.789509 33.039774 C 55.746197 33.010205 59.702885 33.395524 63.591195 34.141215 C 64.440376 34.234542 65.250749 34.556104 66.105475 34.659595 C 67.655994 35.065243 69.212057 35.445019 70.738551 35.929209 C 71.67182 36.265555 72.654985 36.442969 73.589178 36.773771 C 74.394006 37.030651 75.17943 37.352212 75.954689 37.683014 C 76.661571 38.05355 77.407261 38.359403 78.068866 38.824189 C 78.622358 39.203965 79.264558 39.639182 79.422567 40.340519 C 79.565791 40.681485 79.259938 40.928201 79.047411 41.136107 C 78.647307 41.422556 78.163116 41.545451 77.723279 41.743193 C 77.727899 41.778307 77.738063 41.842064 77.748228 41.876253 C 78.256443 41.95572 78.740634 41.757978 79.249773 41.743193 C 79.565791 41.867013 79.654498 42.34104 79.397618 42.572971 C 79.07698 43.101515 78.508703 43.402748 77.975539 43.674412 C 77.337959 44.025543 76.626458 44.202956 75.939905 44.440431 C 71.815044 45.71097 67.714208 46.172984 63.798177 47.37422 C 63.511728 47.438902 63.368504 47.700402 63.170762 47.88336 C 62.904642 48.140239 62.721684 48.466421 62.534107 48.782439 C 61.891907 49.676898 61.19981 50.5307 60.468904 51.355857 C 60.163051 51.617357 59.81192 52.023005 59.362843 51.850212 C 59.026496 51.755961 58.878652 51.405754 58.843539 51.088813 C 58.81397 50.210062 58.774237 49.325767 58.853703 48.446093 C 57.836348 48.599481 56.823614 48.812008 55.791474 48.856361 C 55.055024 48.900714 54.334282 49.054103 53.597832 49.132645 C 52.669184 49.237061 51.745156 49.429258 50.801723 49.439423 C 48.98416 49.429258 47.161053 49.616836 45.34811 49.39969 C 45.204885 49.849691 44.899032 50.210062 44.622748 50.580597 C 44.252213 51.000106 44.039686 51.573003 43.545331 51.869616 C 43.204365 52.037789 42.947485 51.696823 42.83383 51.425159 C 42.745123 51.321668 42.671201 51.025055 42.473459 51.094357 C 41.19368 51.987892 40.456306 53.286151 38.891926 54.230508 C 38.684944 54.369112 38.388331 54.358948 38.205373 54.186155 C 37.800649 53.707508 37.825598 53.04498 37.968822 52.467462 C 38.187817 50.827313 38.095414 50.068686 38.941824 48.688188 C 38.423444 48.580077 37.8949 48.565292 37.370976 48.49599 C 35.943353 48.203997 34.496325 48.051533 33.043753 47.937877 C 31.833276 47.828842 30.608015 47.666213 29.392918 47.839006 C 29.027927 47.868575 28.731314 48.085722 28.415297 48.23449 C 27.827615 48.506154 27.274122 48.831412 26.735414 49.187163 C 26.301121 49.479156 25.81231 49.671354 25.366928 49.943018 C 24.5621 50.412424 23.727703 50.822693 22.887761 51.212632 C 22.072768 51.494461 21.316913 51.928754 20.516705 52.254936 C 20.180359 52.387996 19.76085 52.39354 19.454073 52.191178 C 19.044729 51.805858 18.925529 51.237581 18.743495 50.728442 C 18.530969 50.052053 18.209407 49.409854 18.101296 48.702972 C 18.02183 47.932333 18.02183 47.157074 18.120701 46.386434 C 18.15027 46.194236 18.091132 46.006659 18.017209 45.832941 C 18.15027 45.685097 18.234356 45.428217 18.495856 45.487355 C 19.078918 45.457786 19.672144 45.373699 20.165575 45.042897 C 19.696168 44.825751 19.177789 44.771233 18.678814 44.663122 C 18.02183 44.518974 17.354681 44.455216 16.688457 44.385914 C 15.73024 44.292587 14.772023 44.410862 13.823046 44.534682 C 13.3444 44.613224 12.914727 44.85994 12.439776 44.973595 C 11.600759 45.181502 10.805171 45.541873 9.955065 45.739615 C 9.086479 45.941977 8.280726 46.346701 7.426 46.613745 C 6.749612 46.816107 6.073223 47.072987 5.366342 47.137669 C 4.403505 47.251324 3.439744 47.36498 2.476906 47.478635 C 2.032449 47.487876 1.592612 47.463851 1.152774 47.434282 C 1.285834 47.102556 1.443843 46.777298 1.439223 46.411383 C 1.965919 44.511581 2.506475 42.922253 3.069208 41.08621 C 3.119106 40.730459 2.975882 40.395037 2.940769 40.048526 C 1.924338 37.673774 2.100827 35.859907 2.076802 33.187618 C 2.14056 32.856816 2.605346 32.842032 2.871466 32.86698 C 4.378556 33.039774 5.869937 33.454662 7.233803 34.126431 C 8.097769 34.506206 8.967279 34.886906 9.758247 35.405285 C 10.83012 35.988347 11.753224 36.872642 12.948916 37.213608 C 13.926537 37.470488 14.930032 37.683014 15.947387 37.702419 C 17.004475 37.697799 18.071727 37.712583 19.114031 37.519461 C 18.550374 37.317099 17.928503 37.257962 17.404579 36.952108 C 17.143079 36.80334 17.261355 36.40878 17.444312 36.240607 C 17.814847 35.781365 18.457047 35.785985 18.990211 35.746252 C 19.464237 35.716683 19.918859 35.89964 20.373481 36.013296 C 21.228207 36.255391 22.062604 36.699849 22.976468 36.586193 C 23.757271 36.462373 24.551936 36.462373 25.337359 36.333934 C 26.137568 36.205494 26.94332 36.131571 27.737984 35.958778 C 28.286857 35.958778 28.834805 35.89502 29.368894 35.7712 C 30.218075 35.627976 31.082965 35.563294 31.917363 35.356312 C 33.043753 35.118837 34.194168 35.064319 35.326102 34.847172 C 36.012655 34.699328 36.724156 34.630026 37.400545 34.427664 C 36.798079 34.244706 36.16512 34.166164 35.558033 34.002611 C 35.12836 33.844602 34.683903 33.741111 34.25885 33.572938 C 34.248685 33.335463 34.353101 33.113696 34.471376 32.915954 C 34.73842 32.599936 35.13298 32.427143 35.419429 32.13515 C 36.987504 30.40075 40.358359 26.77856 40.462774 26.262028 Z M 40.462774 26.262028 " stroke="#000000" stroke-width="0.005" stroke-opacity="1" stroke-miterlimit="4"/></g></svg>